<svg xmlns="http://www.w3.org/2000/svg" xmlns:xlink="http://www.w3.org/1999/xlink" width="500" zoomAndPan="magnify" viewBox="0 0 375 374.999991" height="500" preserveAspectRatio="xMidYMid meet" version="1.0"><defs><g/><clipPath id="0c84a6e5d4"><path d="M 11 62.578125 L 364 62.578125 L 364 312.328125 L 11 312.328125 Z M 11 62.578125 " clip-rule="nonzero"/></clipPath><clipPath id="5e8529a2f7"><path d="M 154.644531 62.578125 L 220.371094 62.578125 L 220.371094 312.328125 L 154.644531 312.328125 Z M 154.644531 62.578125 " clip-rule="nonzero"/></clipPath></defs><g clip-path="url(#0c84a6e5d4)"><path fill="#facc15" d="M 92.035156 62.578125 C 92.035156 62.578125 1.941406 149.09375 12.128906 312.558594 C 28.441406 255.914062 56.246094 253.160156 87.148438 267.683594 C 96.441406 231.894531 130.921875 233.339844 141.109375 259.148438 C 157.835938 239.535156 177.796875 251.507812 187.636719 303.886719 C 197.410156 251.507812 217.441406 239.535156 234.164062 259.148438 C 244.28125 233.339844 278.835938 231.894531 288.125 267.683594 C 318.960938 253.160156 346.765625 255.914062 363.148438 312.558594 C 373.335938 149.09375 283.171875 62.578125 283.171875 62.578125 C 304.367188 154.324219 245.589844 173.320312 210.96875 176.761719 C 212.414062 172.703125 213.242188 168.226562 213.242188 163.480469 C 213.242188 152.328125 208.699219 142.554688 201.816406 136.773438 C 199.683594 148.957031 194.109375 157.628906 187.636719 157.628906 C 181.097656 157.628906 175.59375 148.957031 173.460938 136.773438 C 166.507812 142.554688 161.964844 152.328125 161.964844 163.480469 C 161.964844 168.226562 162.789062 172.703125 164.304688 176.761719 C 129.617188 173.320312 70.90625 154.324219 92.035156 62.578125 Z M 92.035156 62.578125 " fill-opacity="1" fill-rule="evenodd"/></g><g clip-path="url(#5e8529a2f7)"><path fill="#facc15" d="M 220.292969 189.292969 C 220.570312 185.800781 220.074219 178.761719 219.554688 175.296875 C 219.328125 173.796875 218.566406 170.84375 218.082031 169.402344 C 217.632812 168.074219 216.515625 165.488281 215.871094 164.246094 C 214.578125 161.75 211.242188 157.179688 209.976562 154.667969 C 209.53125 153.78125 208.722656 151.953125 208.503906 150.984375 C 206.214844 140.886719 206.460938 119.953125 204.820312 109.726562 C 203.558594 101.875 199.175781 85.53125 201.875 78.050781 C 202.136719 77.3125 203.917969 76.601562 204.085938 75.839844 C 204.417969 74.300781 201.789062 71.515625 201.875 69.945312 C 201.917969 69.121094 203.347656 67.824219 203.347656 67 C 203.347656 66.175781 202.480469 64.609375 201.875 64.050781 C 201.53125 63.738281 200.707031 63.394531 199.925781 63.121094 C 198.902344 62.761719 197.820312 62.578125 196.734375 62.578125 L 178.277344 62.578125 C 177.191406 62.578125 176.113281 62.761719 175.089844 63.121094 C 174.308594 63.394531 173.480469 63.738281 173.140625 64.050781 C 172.535156 64.609375 171.667969 66.175781 171.667969 67 C 171.667969 67.824219 173.097656 69.121094 173.140625 69.945312 C 173.222656 71.515625 170.597656 74.300781 170.929688 75.839844 C 171.097656 76.601562 172.875 77.3125 173.140625 78.050781 C 175.84375 85.53125 171.457031 101.875 170.195312 109.726562 C 168.550781 119.953125 168.800781 140.886719 166.511719 150.984375 C 166.292969 151.953125 165.480469 153.78125 165.035156 154.667969 C 163.773438 157.179688 160.4375 161.75 159.140625 164.246094 C 158.496094 165.488281 157.382812 168.074219 156.933594 169.402344 C 156.449219 170.84375 155.683594 173.796875 155.460938 175.296875 C 154.941406 178.761719 154.445312 185.800781 154.722656 189.292969 C 154.933594 191.925781 156.597656 196.992188 156.933594 199.609375 C 157.214844 201.800781 156.933594 206.238281 156.933594 208.449219 C 156.933594 210.660156 156.933594 215.078125 156.933594 217.289062 C 156.933594 231.65625 157.949219 260.421875 156.933594 274.753906 C 156.839844 276.050781 156.359375 278.621094 156.195312 279.910156 C 155.988281 281.566406 155.554688 284.875 155.460938 286.542969 C 155.398438 287.644531 155.460938 289.859375 155.460938 290.960938 C 155.460938 292.804688 155.164062 296.511719 155.460938 298.328125 C 155.644531 299.476562 156.457031 301.683594 156.933594 302.75 C 157.539062 304.105469 158.839844 306.84375 159.878906 307.90625 C 160.628906 308.671875 162.566406 309.71875 163.5625 310.117188 C 165.140625 310.746094 168.515625 311.328125 170.195312 311.589844 C 172.203125 311.902344 176.265625 312.234375 178.296875 312.328125 C 181.609375 312.476562 193.402344 312.476562 196.714844 312.328125 C 198.746094 312.234375 202.8125 311.902344 204.820312 311.589844 C 206.496094 311.328125 209.871094 310.746094 211.449219 310.117188 C 212.449219 309.71875 214.382812 308.671875 215.136719 307.90625 C 216.171875 306.84375 217.472656 304.105469 218.082031 302.75 C 218.558594 301.683594 219.367188 299.476562 219.554688 298.328125 C 219.847656 296.511719 219.554688 292.804688 219.554688 290.960938 C 219.554688 289.859375 219.617188 287.644531 219.554688 286.542969 C 219.460938 284.875 219.027344 281.566406 218.816406 279.910156 C 218.65625 278.621094 218.171875 276.050781 218.082031 274.753906 C 217.0625 260.421875 218.082031 231.65625 218.082031 217.289062 C 218.082031 215.078125 218.082031 210.660156 218.082031 208.449219 C 218.082031 206.238281 217.800781 201.800781 218.082031 199.609375 C 218.414062 196.992188 220.082031 191.925781 220.292969 189.292969 " fill-opacity="1" fill-rule="nonzero"/></g><g fill="#000000" fill-opacity="1"><g transform="translate(100.285636, 218.775014)"><g><path d="M 14.28125 0.953125 C 9.757812 0.953125 6.4375 -0.179688 4.3125 -2.453125 C 2.195312 -4.734375 1.140625 -8.515625 1.140625 -13.796875 C 1.140625 -17.992188 1.847656 -22.515625 3.265625 -27.359375 C 4.691406 -32.203125 6.972656 -36.351562 10.109375 -39.8125 C 13.242188 -43.269531 17.234375 -45 22.078125 -45 C 25.078125 -45 27.492188 -44.335938 29.328125 -43.015625 C 31.171875 -41.703125 32.09375 -39.679688 32.09375 -36.953125 C 32.09375 -35.234375 31.753906 -33.882812 31.078125 -32.90625 C 30.398438 -31.925781 29.34375 -31.4375 27.90625 -31.4375 C 26.457031 -31.4375 25.316406 -31.957031 24.484375 -33 C 25.203125 -33.363281 25.835938 -34.082031 26.390625 -35.15625 C 26.953125 -36.238281 27.234375 -37.359375 27.234375 -38.515625 C 27.234375 -39.597656 26.941406 -40.476562 26.359375 -41.15625 C 25.785156 -41.84375 24.859375 -42.1875 23.578125 -42.1875 C 21.460938 -42.1875 19.441406 -40.734375 17.515625 -37.828125 C 15.597656 -34.929688 14.046875 -31.28125 12.859375 -26.875 C 11.679688 -22.476562 11.09375 -18.238281 11.09375 -14.15625 C 11.09375 -11.113281 11.613281 -8.789062 12.65625 -7.1875 C 13.695312 -5.59375 15.578125 -4.796875 18.296875 -4.796875 C 20.660156 -4.796875 22.84375 -5.316406 24.84375 -6.359375 C 26.84375 -7.398438 28.5625 -8.878906 30 -10.796875 L 31.375 -10.203125 C 30.375 -7.679688 28.894531 -5.578125 26.9375 -3.890625 C 24.976562 -2.210938 22.878906 -0.984375 20.640625 -0.203125 C 18.398438 0.566406 16.28125 0.953125 14.28125 0.953125 Z M 14.28125 0.953125 "/></g></g></g><g fill="#000000" fill-opacity="1"><g transform="translate(133.105607, 218.775014)"><g><path d="M 21.65625 0.359375 C 19.21875 0.359375 17.425781 -0.289062 16.28125 -1.59375 C 15.144531 -2.894531 14.578125 -4.503906 14.578125 -6.421875 C 14.578125 -7.265625 14.675781 -8.210938 14.875 -9.265625 C 15.082031 -10.328125 15.296875 -11.359375 15.515625 -12.359375 C 15.734375 -13.359375 15.878906 -14 15.953125 -14.28125 C 16.273438 -15.675781 16.578125 -17.050781 16.859375 -18.40625 C 17.140625 -19.769531 17.28125 -20.875 17.28125 -21.71875 C 17.28125 -23.757812 16.5625 -24.78125 15.125 -24.78125 C 14.082031 -24.78125 13.160156 -24.269531 12.359375 -23.25 C 11.554688 -22.226562 10.914062 -20.898438 10.4375 -19.265625 L 6.359375 0 L -2.28125 0 L 6.421875 -40.796875 L 15.296875 -42 L 12.0625 -26.875 C 14.0625 -29.113281 16.398438 -30.234375 19.078125 -30.234375 C 21.117188 -30.234375 22.738281 -29.671875 23.9375 -28.546875 C 25.132812 -27.429688 25.734375 -25.734375 25.734375 -23.453125 C 25.734375 -22.296875 25.59375 -21.003906 25.3125 -19.578125 C 25.039062 -18.160156 24.644531 -16.4375 24.125 -14.40625 C 23.800781 -13.164062 23.507812 -11.953125 23.25 -10.765625 C 22.988281 -9.585938 22.859375 -8.660156 22.859375 -7.984375 C 22.859375 -7.179688 23.035156 -6.554688 23.390625 -6.109375 C 23.753906 -5.671875 24.378906 -5.453125 25.265625 -5.453125 C 26.460938 -5.453125 27.421875 -5.882812 28.140625 -6.75 C 28.859375 -7.613281 29.578125 -8.941406 30.296875 -10.734375 L 32.8125 -10.734375 C 31.332031 -6.335938 29.625 -3.390625 27.6875 -1.890625 C 25.75 -0.390625 23.738281 0.359375 21.65625 0.359375 Z M 21.65625 0.359375 "/></g></g></g><g fill="#000000" fill-opacity="1"><g transform="translate(166.405577, 218.775014)"><g><path d="M 7.203125 0.359375 C 4.921875 0.359375 3.019531 -0.414062 1.5 -1.96875 C -0.0195312 -3.53125 -0.78125 -5.972656 -0.78125 -9.296875 C -0.78125 -12.253906 -0.191406 -15.363281 0.984375 -18.625 C 2.171875 -21.882812 3.929688 -24.644531 6.265625 -26.90625 C 8.609375 -29.164062 11.398438 -30.296875 14.640625 -30.296875 C 16.273438 -30.296875 17.492188 -30.015625 18.296875 -29.453125 C 19.097656 -28.898438 19.5 -28.160156 19.5 -27.234375 L 19.5 -26.8125 L 20.15625 -30 L 28.796875 -30 L 24.484375 -9.59375 C 24.316406 -9 24.234375 -8.363281 24.234375 -7.6875 C 24.234375 -5.957031 25.054688 -5.09375 26.703125 -5.09375 C 27.816406 -5.09375 28.785156 -5.613281 29.609375 -6.65625 C 30.429688 -7.695312 31.082031 -9.054688 31.5625 -10.734375 L 34.078125 -10.734375 C 32.597656 -6.421875 30.765625 -3.492188 28.578125 -1.953125 C 26.398438 -0.410156 24.210938 0.359375 22.015625 0.359375 C 20.335938 0.359375 18.988281 -0.109375 17.96875 -1.046875 C 16.945312 -1.984375 16.335938 -3.351562 16.140625 -5.15625 C 14.984375 -3.519531 13.691406 -2.191406 12.265625 -1.171875 C 10.847656 -0.148438 9.160156 0.359375 7.203125 0.359375 Z M 11.09375 -5.453125 C 12.09375 -5.453125 13.082031 -5.921875 14.0625 -6.859375 C 15.050781 -7.804688 15.722656 -9.097656 16.078125 -10.734375 L 18.953125 -24.296875 C 18.953125 -24.816406 18.753906 -25.328125 18.359375 -25.828125 C 17.960938 -26.328125 17.34375 -26.578125 16.5 -26.578125 C 14.894531 -26.578125 13.453125 -25.644531 12.171875 -23.78125 C 10.898438 -21.925781 9.898438 -19.6875 9.171875 -17.0625 C 8.453125 -14.445312 8.09375 -12.140625 8.09375 -10.140625 C 8.09375 -8.140625 8.382812 -6.859375 8.96875 -6.296875 C 9.550781 -5.734375 10.257812 -5.453125 11.09375 -5.453125 Z M 11.09375 -5.453125 "/></g></g></g><g fill="#000000" fill-opacity="1"><g transform="translate(200.965542, 218.775014)"><g><path d="M 4.078125 -30 L 12.71875 -30 L 11.9375 -26.28125 C 13.300781 -27.476562 14.53125 -28.394531 15.625 -29.03125 C 16.726562 -29.675781 17.921875 -30 19.203125 -30 C 20.484375 -30 21.492188 -29.554688 22.234375 -28.671875 C 22.972656 -27.796875 23.34375 -26.738281 23.34375 -25.5 C 23.34375 -24.34375 22.960938 -23.320312 22.203125 -22.4375 C 21.441406 -21.5625 20.378906 -21.125 19.015625 -21.125 C 18.140625 -21.125 17.550781 -21.332031 17.25 -21.75 C 16.945312 -22.164062 16.71875 -22.773438 16.5625 -23.578125 C 16.4375 -24.097656 16.3125 -24.476562 16.1875 -24.71875 C 16.070312 -24.957031 15.859375 -25.078125 15.546875 -25.078125 C 14.703125 -25.078125 13.988281 -24.90625 13.40625 -24.5625 C 12.832031 -24.226562 12.082031 -23.640625 11.15625 -22.796875 L 6.359375 0 L -2.28125 0 Z M 4.078125 -30 "/></g></g></g><g fill="#000000" fill-opacity="1"><g transform="translate(226.525519, 218.775014)"><g><path d="M 5.9375 0.359375 C 4.019531 0.359375 2.46875 -0.238281 1.28125 -1.4375 C 0.101562 -2.632812 -0.484375 -4.4375 -0.484375 -6.84375 C -0.484375 -7.84375 -0.320312 -9.140625 0 -10.734375 L 6.421875 -40.796875 L 15.296875 -42 L 8.40625 -9.59375 C 8.238281 -9 8.15625 -8.363281 8.15625 -7.6875 C 8.15625 -6.882812 8.34375 -6.3125 8.71875 -5.96875 C 9.101562 -5.625 9.738281 -5.453125 10.625 -5.453125 C 11.78125 -5.453125 12.859375 -5.941406 13.859375 -6.921875 C 14.859375 -7.910156 15.578125 -9.179688 16.015625 -10.734375 L 18.546875 -10.734375 C 17.054688 -6.421875 15.148438 -3.492188 12.828125 -1.953125 C 10.515625 -0.410156 8.21875 0.359375 5.9375 0.359375 Z M 5.9375 0.359375 "/></g></g></g><g fill="#000000" fill-opacity="1"><g transform="translate(245.545506, 218.775014)"><g><path d="M 9.359375 15 C 7.441406 15 5.84375 14.5 4.5625 13.5 C 3.28125 12.5 2.640625 11.0625 2.640625 9.1875 C 2.640625 6.90625 3.554688 5.070312 5.390625 3.6875 C 7.234375 2.3125 9.578125 1.160156 12.421875 0.234375 L 13.140625 -3 C 11.984375 -1.71875 10.800781 -0.835938 9.59375 -0.359375 C 8.394531 0.117188 7.175781 0.359375 5.9375 0.359375 C 4.019531 0.359375 2.46875 -0.238281 1.28125 -1.4375 C 0.101562 -2.632812 -0.484375 -4.4375 -0.484375 -6.84375 C -0.484375 -7.84375 -0.320312 -9.140625 0 -10.734375 L 4.078125 -30 L 12.71875 -30 L 8.40625 -9.59375 C 8.28125 -9.113281 8.21875 -8.613281 8.21875 -8.09375 C 8.21875 -6.332031 8.816406 -5.453125 10.015625 -5.453125 C 11.054688 -5.453125 11.976562 -5.898438 12.78125 -6.796875 C 13.582031 -7.703125 14.222656 -8.894531 14.703125 -10.375 L 18.90625 -30 L 27.546875 -30 L 21.59375 -2.15625 C 23.519531 -2.800781 25.0625 -3.757812 26.21875 -5.03125 C 27.375 -6.3125 28.351562 -8.210938 29.15625 -10.734375 L 31.6875 -10.734375 C 30.601562 -7.179688 29.140625 -4.570312 27.296875 -2.90625 C 25.460938 -1.25 23.382812 -0.117188 21.0625 0.484375 L 20.15625 4.796875 C 19.351562 8.679688 17.972656 11.351562 16.015625 12.8125 C 14.054688 14.269531 11.835938 15 9.359375 15 Z M 7.984375 10.3125 C 8.660156 10.3125 9.316406 9.851562 9.953125 8.9375 C 10.597656 8.019531 11.097656 6.703125 11.453125 4.984375 L 11.8125 3.234375 C 7.894531 4.679688 5.9375 6.382812 5.9375 8.34375 C 5.9375 8.863281 6.113281 9.320312 6.46875 9.71875 C 6.832031 10.113281 7.335938 10.3125 7.984375 10.3125 Z M 7.984375 10.3125 "/></g></g></g><path stroke-linecap="round" transform="matrix(0.814805, 0, 0, 0.814805, 151.837876, 230.700791)" fill="none" stroke-linejoin="miter" d="M 2.667929 2.639614 C 32.62141 15.727482 62.579684 15.7131 92.537958 2.596467 " stroke="#000000" stroke-width="4" stroke-opacity="1" stroke-miterlimit="4"/><path stroke-linecap="round" transform="matrix(-0.410999, 0.703553, -0.703553, -0.410999, 163.36971, 223.909483)" fill="none" stroke-linejoin="miter" d="M 2.833024 2.757026 C 10.746718 7.97804 18.265816 7.999541 25.387901 2.81739 " stroke="#000000" stroke-width="4" stroke-opacity="1" stroke-miterlimit="4"/><g fill="#facc15" fill-opacity="1"><g transform="translate(106.291404, 153.525019)"><g><path d="M 11.609375 0.515625 C 10.804688 0.515625 10.109375 0.347656 9.515625 0.015625 C 8.929688 -0.316406 8.640625 -0.890625 8.640625 -1.703125 C 8.640625 -2.222656 8.769531 -2.804688 9.03125 -3.453125 C 9.382812 -3.046875 9.71875 -2.765625 10.03125 -2.609375 C 10.34375 -2.453125 10.679688 -2.375 11.046875 -2.375 C 12.046875 -2.375 12.789062 -2.929688 13.28125 -4.046875 C 13.769531 -5.171875 14.015625 -6.410156 14.015625 -7.765625 C 14.015625 -10.304688 13.0625 -11.578125 11.15625 -11.578125 C 10.613281 -11.578125 10.15625 -11.546875 9.78125 -11.484375 L 7.3125 0 L 3 0 L 7.078125 -19.078125 L 11.515625 -19.6875 L 10.109375 -13.015625 L 10.296875 -13.015625 C 11.054688 -13.015625 11.765625 -13.257812 12.421875 -13.75 C 13.078125 -14.238281 13.601562 -14.859375 14 -15.609375 C 14.40625 -16.359375 14.609375 -17.113281 14.609375 -17.875 C 14.609375 -18.800781 14.28125 -19.570312 13.625 -20.1875 C 12.976562 -20.8125 11.988281 -21.125 10.65625 -21.125 C 9.425781 -21.125 8.234375 -20.847656 7.078125 -20.296875 C 5.921875 -19.742188 4.976562 -18.914062 4.25 -17.8125 C 3.519531 -16.71875 3.15625 -15.390625 3.15625 -13.828125 C 3.15625 -13.085938 3.222656 -12.570312 3.359375 -12.28125 C 3.492188 -11.988281 3.5625 -11.828125 3.5625 -11.796875 C 2.507812 -11.796875 1.710938 -12.007812 1.171875 -12.4375 C 0.628906 -12.863281 0.359375 -13.566406 0.359375 -14.546875 C 0.359375 -15.910156 0.867188 -17.203125 1.890625 -18.421875 C 2.910156 -19.640625 4.257812 -20.625 5.9375 -21.375 C 7.613281 -22.125 9.382812 -22.5 11.25 -22.5 C 12.644531 -22.5 13.820312 -22.28125 14.78125 -21.84375 C 15.75 -21.40625 16.46875 -20.820312 16.9375 -20.09375 C 17.40625 -19.375 17.640625 -18.585938 17.640625 -17.734375 C 17.640625 -16.804688 17.378906 -15.910156 16.859375 -15.046875 C 16.335938 -14.191406 15.597656 -13.492188 14.640625 -12.953125 C 15.835938 -12.734375 16.726562 -12.175781 17.3125 -11.28125 C 17.894531 -10.394531 18.1875 -9.34375 18.1875 -8.125 C 18.1875 -6.988281 17.96875 -5.75 17.53125 -4.40625 C 17.101562 -3.070312 16.394531 -1.914062 15.40625 -0.9375 C 14.414062 0.03125 13.148438 0.515625 11.609375 0.515625 Z M 11.609375 0.515625 "/></g></g></g><g fill="#facc15" fill-opacity="1"><g transform="translate(127.321378, 153.525019)"><g><path d="M 4.375 0.125 C 2.894531 0.125 1.722656 -0.253906 0.859375 -1.015625 C 0.00390625 -1.773438 -0.421875 -2.976562 -0.421875 -4.625 C -0.421875 -5.976562 -0.140625 -7.484375 0.421875 -9.140625 C 0.984375 -10.804688 1.882812 -12.242188 3.125 -13.453125 C 4.363281 -14.660156 5.921875 -15.265625 7.796875 -15.265625 C 10.359375 -15.265625 11.640625 -13.664062 11.640625 -10.46875 L 11.640625 -10.4375 C 11.703125 -10.414062 11.8125 -10.40625 11.96875 -10.40625 C 12.625 -10.40625 13.382812 -10.578125 14.25 -10.921875 C 15.113281 -11.273438 15.894531 -11.703125 16.59375 -12.203125 L 16.859375 -11.40625 C 16.273438 -10.78125 15.519531 -10.253906 14.59375 -9.828125 C 13.664062 -9.398438 12.648438 -9.09375 11.546875 -8.90625 C 11.390625 -7.09375 10.976562 -5.503906 10.3125 -4.140625 C 9.65625 -2.773438 8.804688 -1.722656 7.765625 -0.984375 C 6.722656 -0.242188 5.59375 0.125 4.375 0.125 Z M 5.578125 -2.578125 C 6.054688 -2.578125 6.535156 -2.851562 7.015625 -3.40625 C 7.492188 -3.957031 7.910156 -4.707031 8.265625 -5.65625 C 8.628906 -6.601562 8.894531 -7.65625 9.0625 -8.8125 C 8.519531 -8.9375 8.25 -9.359375 8.25 -10.078125 C 8.25 -10.898438 8.5625 -11.441406 9.1875 -11.703125 C 9.144531 -12.359375 9.039062 -12.8125 8.875 -13.0625 C 8.71875 -13.3125 8.441406 -13.4375 8.046875 -13.4375 C 7.378906 -13.4375 6.734375 -12.957031 6.109375 -12 C 5.492188 -11.039062 4.992188 -9.890625 4.609375 -8.546875 C 4.234375 -7.210938 4.046875 -6.035156 4.046875 -5.015625 C 4.046875 -4.046875 4.15625 -3.394531 4.375 -3.0625 C 4.59375 -2.738281 4.992188 -2.578125 5.578125 -2.578125 Z M 5.578125 -2.578125 "/></g></g></g><g fill="#facc15" fill-opacity="1"><g transform="translate(142.291364, 153.525019)"><g><path d="M 2.96875 0.1875 C 2.007812 0.1875 1.234375 -0.113281 0.640625 -0.71875 C 0.0546875 -1.320312 -0.234375 -2.222656 -0.234375 -3.421875 C -0.234375 -3.921875 -0.15625 -4.570312 0 -5.375 L 1.796875 -13.796875 L 0.8125 -13.796875 L 1.046875 -15 L 2.046875 -15 L 2.9375 -19.140625 L 7.375 -19.734375 L 6.359375 -15 L 8.15625 -15 L 7.921875 -13.796875 L 6.125 -13.796875 L 4.203125 -4.796875 C 4.117188 -4.492188 4.078125 -4.175781 4.078125 -3.84375 C 4.078125 -3.4375 4.171875 -3.148438 4.359375 -2.984375 C 4.554688 -2.816406 4.875 -2.734375 5.3125 -2.734375 C 5.894531 -2.734375 6.4375 -2.976562 6.9375 -3.46875 C 7.4375 -3.957031 7.796875 -4.59375 8.015625 -5.375 L 9.265625 -5.375 C 8.523438 -3.207031 7.578125 -1.738281 6.421875 -0.96875 C 5.265625 -0.195312 4.113281 0.1875 2.96875 0.1875 Z M 2.96875 0.1875 "/></g></g></g><g fill="#facc15" fill-opacity="1"><g transform="translate(152.101356, 153.525019)"><g><path d="M 5.015625 -16.625 C 4.347656 -16.625 3.785156 -16.851562 3.328125 -17.3125 C 2.867188 -17.769531 2.640625 -18.328125 2.640625 -18.984375 C 2.640625 -19.648438 2.867188 -20.21875 3.328125 -20.6875 C 3.785156 -21.15625 4.347656 -21.390625 5.015625 -21.390625 C 5.671875 -21.390625 6.234375 -21.15625 6.703125 -20.6875 C 7.171875 -20.21875 7.40625 -19.648438 7.40625 -18.984375 C 7.40625 -18.328125 7.171875 -17.769531 6.703125 -17.3125 C 6.234375 -16.851562 5.671875 -16.625 5.015625 -16.625 Z M 2.96875 0.1875 C 2.007812 0.1875 1.234375 -0.113281 0.640625 -0.71875 C 0.0546875 -1.320312 -0.234375 -2.222656 -0.234375 -3.421875 C -0.234375 -3.921875 -0.15625 -4.570312 0 -5.375 L 2.046875 -15 L 6.359375 -15 L 4.203125 -4.796875 C 4.117188 -4.492188 4.078125 -4.175781 4.078125 -3.84375 C 4.078125 -3.4375 4.171875 -3.148438 4.359375 -2.984375 C 4.554688 -2.816406 4.875 -2.734375 5.3125 -2.734375 C 5.894531 -2.734375 6.4375 -2.976562 6.9375 -3.46875 C 7.4375 -3.957031 7.796875 -4.59375 8.015625 -5.375 L 9.265625 -5.375 C 8.523438 -3.207031 7.578125 -1.738281 6.421875 -0.96875 C 5.265625 -0.195312 4.113281 0.1875 2.96875 0.1875 Z M 2.96875 0.1875 "/></g></g></g></svg>